<?xml version="1.0" encoding="UTF-8"?><svg id="Layer_1" xmlns="http://www.w3.org/2000/svg" xmlns:xlink="http://www.w3.org/1999/xlink" viewBox="0 0 60 60"><defs><style>.cls-1{fill:none;}.cls-2{clip-path:url(#clippath);}.cls-3{fill:#ffb600;}.cls-4{fill:#3200e1;}</style><clipPath id="clippath"><path class="cls-1" d="M18.17,22.22c-.6-.8-1.3-1.51-2.01-2.22-3.11-3.09-6.3-6.11-9.57-9.03-1.2-1.07-2.64-2.2-4.23-1.96-2.72,.41,1.99,10.49,2.26,11.96,1.5,8.32,3.46,16.56,5.92,24.75,.41,1.38,.92,2.73,1.42,4.07,.71,1.91,1,4.37,2.22,6.1,.39,.56,.93,.96,1.43,1.41,1.88,1.7,4.29,2.03,6.7,2.33,7.01,.86,13.08-1.87,19.72-3.27,6.35-1.34,10.24-6.88,13.68-11.99,2.97-4.42,4.22-8.28,2.55-13.41-2.3-7.1-7.99-11.08-14.78-14.01-1.27-3.92-2.75-7.4-4.62-11.04-.83-1.62-1.57-3.49-2.64-5.05-.65-.95-2.1-.88-2.67,.13-1.46,2.57-1.56,7.15-1.86,9.26-.43,3.04-.98,7.04-1.81,9.86-2.25,.73-4.55,1.07-6.83,1.68-.95,.26-4.59,.79-4.88,.41Z"/></clipPath></defs><path class="cls-3" d="M18.17,22.22c-.6-.8-1.3-1.51-2.01-2.22-3.11-3.09-6.3-6.11-9.57-9.03-1.2-1.07-2.64-2.2-4.23-1.96-2.72,.41,1.99,10.49,2.26,11.96,1.48,8.16,3.38,16.25,5.78,24.28,.47,1.59,1.04,3.15,1.61,4.7,.82,2.24,1.16,4.76,2.73,6.66,.43,.52,1.18,.73,1.75,1.05,.98,.55,1.97,1.06,2.99,1.53,.88,.41,1.86,.33,2.82,.44,7.01,.86,13.08-1.87,19.72-3.27,6.35-1.34,10.24-6.88,13.68-11.99,2.97-4.42,4.22-8.28,2.55-13.41-2.3-7.1-7.99-11.08-14.78-14.01-1.27-3.92-2.75-7.4-4.62-11.04-.9-1.75-1.69-3.78-2.9-5.41-.52-.7-1.6-.69-2.11,.02-1.74,2.44-1.84,7.49-2.16,9.72-.43,3.04-.98,7.04-1.81,9.86-2.25,.73-4.55,1.07-6.83,1.68-.95,.26-4.59,.79-4.88,.41Z"/><path class="cls-4" d="M35.76,36.55c-.34-.78-.86-1.65-1.65-2.49-.77-.84-1.75-1.56-2.73-2.1-.98-.55-1.96-.86-2.55-1.09-2.17-.83-3.38-1.14-4.1-1.28-1.08-.22-2.12-.28-3.07-.15-.22,.03-.41,.09-.62,.13-.11-.01-.2-.05-.31-.05-.62-.03-2.56,.12-4.14,1.12-.79,.48-1.44,1.15-1.82,1.72-.19,.32-.33,.61-.43,.8-.08,.22-.11,.35-.11,.35,0,0-.2,.51-.12,1.38,.09,.72,.49,1.48,.98,2.09,.18,.29,.38,.57,.61,.82,.8,.84,1.79,1.39,2.9,1.83,.02,0,.04,.02,.06,.03,.06,.03,.11,.04,.17,.06,.57,.21,1.16,.41,1.79,.59,1,.26,2.93,.79,6.13,1.05,.78,.06,1.72,.1,2.69,.1,.98,0,2.06-.06,3.07-.34,1.02-.26,1.95-.82,2.48-1.38,.27-.26,.48-.54,.61-.77,.15-.25,.2-.42,.2-.42,0,0,.09-.19,.15-.54,.07-.33,0-.97-.2-1.43Zm-3.94,2.01c-1.3,.36-3.45,.24-4.86,.15-2.95-.24-4.73-.72-5.66-.95-.46-.12-.88-.23-1.28-.34-.04-.03-.07-.06-.12-.09-.43-.24-1.82-.99-2.6-1.83-.83-.89-.54-1.25-.55-1.28,0,0,0-.03,.02-.09,.05-.07,.1-.16,.16-.3,.2-.29,.55-.66,1.03-.95,.96-.61,2.35-.76,2.77-.74,.42,0,.74-.1,1.1-.27,.72,.01,1.48,.09,2.36,.29,.61,.13,1.57,.37,3.71,1.19,.68,.26,1.45,.51,2.21,.94,.76,.42,1.51,.97,2.07,1.58,.56,.58,.96,1.28,1.14,1.68,.02,.05,.03,.07,.03,.07-.09,.15-.51,.68-1.53,.95Zm1.53-.95s0-.01,0,0c.03-.06,.03-.05,0,0Z"/><path class="cls-4" d="M27.76,32.11c-.3-.84-1.13-1.45-2.02-1.33-.45,.06-.82,.36-.99,.71-.47,.03-.87,.41-1.1,.71-.31,.43-.46,.74-.56,1.27-.09,.56-.36,2.17-.57,3.76-.04,.45-.07,1.05,.18,1.68,.27,.65,.73,1.13,1.36,1.39,.31,.12,.66,.17,.95,.14,.28-.03,.52-.1,.7-.19,.37-.18,.5-.33,.5-.33,0,0,.17-.14,.35-.38,.18-.24,.36-.58,.47-.94,.24-.79,.28-1.38,.43-2.16,.13-.75,.27-1.53,.38-2.19,.15-.71,.11-1.67-.1-2.14Z"/><g><path class="cls-4" d="M50.63,28.85c-1.19-1.74-2.48-3.4-3.87-4.98-.12-.13-.25-.27-.43-.28-.21-.01-.37,.16-.5,.32-.28,.33-.56,.68-.63,1.1-.1,.62,.3,1.19,.68,1.69,.65,.86,1.3,1.73,1.95,2.59,.3,.39,.66,.82,1.15,.84,.62,.02,1.03-.61,1.32-1.16"/><path class="cls-4" d="M50.33,26.18c-.31-.44-1.29-1.71-2.27-2.82-.13-.15-.25-.29-.38-.43-.1-.1-.23-.24-.47-.39-.23-.15-.64-.29-1.02-.26-.82,.1-1.09,.5-1.26,.66-.12,.14-.23,.27-.33,.39-.2,.25-.38,.54-.49,.78-.11,.25-.15,.42-.15,.42,0,0-.01,0-.06,.28,0,.02-.04,.2-.03,.5,0,.3,.09,.71,.25,1.06,.16,.36,.37,.69,.59,.98,.19,.26,.4,.54,.61,.82,.42,.56,.85,1.14,1.22,1.63,.19,.24,.31,.44,.7,.86,.33,.33,.65,.52,.87,.61,.86,.35,1.65,0,2.01-.55,.19-.27,.29-.6,.31-.9,.03-.32-.06-.55-.15-.83-1.21,.46-1.37-.36-1.32-.33h0c.07,.08-.14-.18-.32-.43-.02-.02-.04-.05-.05-.07,.5,.42,1.11,.56,2.03,.71,.23-1.14,.27-1.87-.3-2.67Zm-3.83-.97s0,0,0,0c0,0,0,0,0,0,0,0,0,0,0,0Zm0,0s0,0,0,0c0,0,0,0,0,0Z"/></g><g class="cls-2"><path class="cls-4" d="M56.14,17.14c-1.72-.2-3.28-.04-4.8,.45-1.51,.52-3.06,1.34-4.62,2.87-.51,.53-1.43,1.34-2.74,3.5-.28,.51-.65,1.2-1.05,1.95-.39,.74-.83,1.57-1.17,2.41-.34,.84-.57,1.69-.66,2.33-.1,.65-.08,1.07-.08,1.07,0,0-.02,.35,.06,.92,.03,.28,.11,.7,.32,1.17,.23,.52,.72,1.11,1.4,1.36,.33,.13,.72,.19,1.08,.18,.32-.01,.6-.06,.85-.12,.48-.13,.91-.28,1.33-.47,.84-.38,1.55-.86,2.1-1.29,1.34-1.05,2.19-2.05,2.86-2.68,.71-.68,1.23-1.19,1.58-1.53,1.46-1.43,2.53-2.75,3.25-4.2,.71-1.43,1.1-3.07,.79-4.79-.54,1.66-1.44,2.68-2.39,3.71-.96,1.02-2.05,2.03-3.49,3.4-.36,.35-.89,.85-1.6,1.53-.76,.72-1.55,1.63-2.64,2.48-.44,.34-.99,.71-1.57,.97-.28,.14-.61,.24-.88,.32-.13,.03-.23,.05-.29,.05-.02,0,0,0,0,0,0,0,.01,.02,0-.02-.04-.1-.08-.23-.1-.41-.05-.35-.04-.57-.04-.57,0,0-.03-1.04,.56-2.41,.28-.68,.67-1.43,1.06-2.16,.38-.72,.74-1.38,1-1.88,1.08-1.8,1.87-2.5,2.29-2.95,1.31-1.31,2.49-2.18,3.63-3.01,1.17-.81,2.34-1.54,3.95-2.18Z"/></g></svg>